<?xml version="1.0" encoding="UTF-8"?>
<!DOCTYPE svg PUBLIC "-//W3C//DTD SVG 1.1//EN" "http://www.w3.org/Graphics/SVG/1.1/DTD/svg11.dtd">
<!-- Creator: CorelDRAW -->
<svg xmlns="http://www.w3.org/2000/svg" xml:space="preserve" width="0.591976in" height="0.591976in" style="shape-rendering:geometricPrecision; text-rendering:geometricPrecision; image-rendering:optimizeQuality; fill-rule:evenodd; clip-rule:evenodd"
viewBox="0 0 0.812542 0.812542"
 xmlns:xlink="http://www.w3.org/1999/xlink">
 <defs>
  <style type="text/css">
   <![CDATA[
    .fil0 {fill:#5B65D6}
   ]]>
  </style>
 </defs>
 <g id="Layer_x0020_1">
  <metadata id="CorelCorpID_0Corel-Layer"/>
  <path class="fil0" d="M0.686799 0.114687l0.115249 -0.114687 -0.28765 0 0 0.287088 0.114687 -0.114682c0.068019,0.0665221 0.102128,0.144663 0.102128,0.234427 0,0.0892023 -0.031856,0.165657 -0.0955735,0.229185 -0.0635283,0.0635229 -0.140167,0.0951952 -0.229369,0.0951952 -0.089948,0 -0.166592,-0.0316723 -0.229936,-0.0950061 -0.0633338,-0.0633446 -0.0950061,-0.139799 -0.0950061,-0.229374 0,-0.0863869 0.0316723,-0.16322 0.0950061,-0.230682l-0.0577137 -0.056968c-0.0790808,0.0841388 -0.118621,0.180085 -0.118621,0.28765 0,0.112061 0.0395404,0.207634 0.11881,0.286899 0.0792645,0.0792699 0.175022,0.11881 0.287461,0.11881 0.112061,0 0.207634,-0.0395404 0.287088,-0.11881 0.0794536,-0.0792645 0.119183,-0.174838 0.119183,-0.286899 0,-0.112434 -0.0419775,-0.209693 -0.125744,-0.292146z"/>
 </g>
</svg>
